<?xml version="1.0" standalone="no"?>
<!DOCTYPE svg PUBLIC "-//W3C//DTD SVG 20010904//EN"
 "http://www.w3.org/TR/2001/REC-SVG-20010904/DTD/svg10.dtd">
<svg version="1.0" xmlns="http://www.w3.org/2000/svg"
 width="330.000000pt" height="466.000000pt" viewBox="0 0 330.000000 466.000000"
 preserveAspectRatio="xMidYMid meet">

<g transform="translate(0.000000,466.000000) scale(0.100000,-0.100000)"
fill="#000000" stroke="none">
<path d="M1464 4232 c-12 -1 -36 -19 -54 -38 -37 -37 -57 -43 -66 -19 -4 8
-15 15 -25 15 -17 0 -19 -8 -19 -88 0 -85 -1 -89 -29 -116 -25 -24 -35 -27
-63 -21 -56 12 -191 5 -207 -10 -12 -12 -12 -24 2 -90 24 -106 22 -122 -12
-139 -20 -11 -31 -12 -39 -4 -14 14 -42 -7 -42 -32 0 -9 -25 -34 -57 -56 -31
-21 -93 -75 -138 -119 -417 -410 -529 -1029 -282 -1558 90 -193 248 -388 417
-517 l76 -58 111 -208 c97 -181 127 -250 162 -374 4 -14 14 -25 21 -25 34 0
69 147 77 318 3 64 8 117 10 117 3 0 51 -10 106 -21 133 -28 359 -31 497 -5
573 104 1023 559 1115 1128 20 122 19 330 -1 449 -27 160 -129 440 -154 424
-6 -4 -7 1 -3 11 4 12 3 15 -5 10 -8 -5 -10 -1 -5 10 5 13 3 15 -7 9 -9 -5
-11 -4 -6 3 14 23 -169 251 -275 343 -69 60 -193 146 -249 173 -37 17 -33 14
63 -49 274 -179 409 -474 328 -716 -95 -287 -403 -487 -806 -524 l-70 -7 3 51
4 51 -41 0 c-23 0 -41 2 -41 3 0 2 7 18 16 36 13 26 21 32 43 29 l26 -3 -2
125 c-1 69 -7 153 -13 186 l-12 61 -51 7 c-29 3 -71 6 -94 6 -43 0 -43 0 -43
36 l0 37 85 -6 85 -6 -6 27 c-11 44 -52 150 -80 204 l-26 51 64 -7 c74 -8 211
6 288 30 l55 17 -70 18 c-114 30 -211 41 -380 42 l-160 2 -3 27 c-3 25 0 27
44 34 72 11 340 -2 429 -21 44 -9 110 -26 148 -37 79 -24 100 -19 142 36 81
106 9 234 -180 322 -98 45 -209 72 -352 86 l-122 12 -16 38 c-8 21 -15 45 -15
52 0 7 -10 20 -22 28 -20 14 -21 18 -10 43 11 23 10 31 -3 51 -8 13 -15 41
-15 62 0 43 -14 60 -46 54z m26 -50 c0 -21 7 -48 16 -60 13 -19 14 -28 4 -53
-11 -26 -10 -32 8 -52 11 -12 30 -46 42 -75 20 -46 21 -56 10 -77 -10 -19 -10
-27 -1 -39 9 -11 10 -20 1 -35 -14 -28 -23 -27 -89 13 -62 38 -84 40 -118 12
-28 -24 -28 -25 -2 -97 25 -69 52 -79 73 -29 7 17 16 27 21 23 4 -5 3 2 -4 14
-7 15 -8 30 -1 47 12 31 14 31 56 6 l33 -21 -25 -36 c-13 -20 -24 -41 -24 -46
0 -6 -7 -2 -16 9 -14 18 -15 18 -4 -4 18 -37 9 -75 -20 -83 -16 -4 -19 -7 -7
-8 18 -1 20 -6 8 -35 -7 -17 -9 -17 -29 9 -18 22 -20 30 -10 37 9 5 3 8 -15 8
-16 0 -26 -4 -22 -9 10 -17 -13 -22 -41 -9 l-28 13 30 7 c24 6 23 7 -9 3 -22
-2 -35 0 -32 6 4 5 -5 9 -19 9 l-26 0 55 109 c50 100 57 109 80 106 l26 -2
-21 19 c-11 10 -20 31 -21 46 -1 19 -5 13 -14 -23 -10 -40 -95 -226 -111 -244
-2 -3 -20 3 -39 12 -50 24 -58 20 -10 -5 l39 -21 -44 -23 c-25 -13 -41 -23
-37 -24 4 0 22 7 38 16 36 18 45 14 29 -16 -6 -12 -9 -24 -6 -28 3 -3 7 1 7 9
1 8 5 1 9 -16 7 -29 8 -29 9 10 2 66 11 71 70 40 l52 -26 -43 -80 c-45 -84
-60 -99 -86 -83 -11 8 -26 -1 -60 -38 -24 -26 -48 -45 -53 -43 -4 3 -11 0 -15
-6 -4 -7 -35 17 -82 62 l-76 74 77 -81 c50 -53 77 -90 78 -105 l0 -24 9 23 c5
12 15 22 22 22 10 0 10 2 1 8 -20 13 66 91 97 89 23 -2 26 -6 28 -54 4 -68 -2
-77 -38 -58 -16 8 -39 14 -52 14 -17 -1 -18 -3 -5 -6 20 -5 25 -78 5 -86 -8
-3 -6 -6 5 -6 9 -1 17 -9 17 -19 0 -10 16 -50 35 -90 l35 -73 -23 -9 -22 -9
23 -7 c21 -6 22 -11 22 -113 0 -70 -4 -111 -12 -119 -19 -19 -28 -14 -29 16
-1 27 -1 27 -11 -5 -9 -26 -17 -33 -37 -34 -26 -1 -26 -1 -3 -8 23 -6 22 -7
-17 -29 -23 -13 -41 -26 -41 -29 0 -3 20 7 44 21 25 14 47 26 51 26 3 0 11
-14 17 -31 6 -16 12 -28 14 -26 3 2 0 15 -5 29 -5 15 -5 30 0 41 18 32 29 17
29 -39 0 -38 -3 -53 -11 -48 -7 4 -9 0 -5 -13 5 -17 1 -22 -24 -27 -18 -3 -29
-10 -25 -16 4 -6 -16 -11 -52 -12 l-58 -2 57 -3 c44 -3 60 -9 68 -23 8 -16 3
-25 -35 -57 -25 -21 -52 -38 -60 -38 -8 0 -45 26 -83 58 l-67 59 65 -63 c35
-34 65 -69 67 -77 1 -8 6 -18 11 -21 5 -3 14 -15 21 -26 11 -18 11 -18 5 5 -5
20 8 12 60 -40 l67 -65 -3 -75 c-3 -73 -4 -75 -30 -77 -15 -1 -38 -9 -53 -19
-22 -14 -33 -15 -86 -5 -34 7 -63 10 -65 8 -3 -2 24 -10 58 -17 55 -10 60 -13
45 -25 -17 -12 -16 -15 14 -36 l32 -22 -35 -31 c-20 -17 -46 -40 -59 -51 -13
-11 -45 -45 -71 -75 l-48 -55 0 158 c0 156 0 157 23 158 18 1 19 2 4 6 -13 3
-17 11 -14 24 3 10 1 16 -4 13 -6 -3 -8 77 -7 203 l3 208 40 6 40 6 -35 2 -35
1 63 36 c34 19 62 37 62 40 0 6 -105 -51 -127 -69 -9 -7 -18 3 -33 34 -11 24
-18 35 -15 24 22 -71 24 -68 -70 -99 -48 -15 -85 -29 -83 -32 2 -2 41 9 86 23
45 15 84 25 87 21 3 -3 4 -98 3 -212 l-3 -206 -147 147 -148 148 23 25 c34 38
73 131 118 285 23 77 45 146 49 155 4 8 18 59 31 113 13 58 27 96 33 94 6 -2
22 -7 36 -11 17 -4 15 -1 -7 9 -32 15 -43 38 -23 50 5 3 7 12 4 20 -3 7 5 24
17 36 18 18 19 21 5 16 -15 -6 -17 -4 -11 10 4 10 10 61 12 113 5 93 22 150
45 150 6 0 9 3 6 6 -4 3 -15 1 -26 -5 -18 -9 -21 -7 -26 22 -8 48 -10 176 -2
184 3 4 12 1 18 -5 7 -7 22 -12 34 -12 48 0 58 50 34 177 -7 34 -10 68 -7 75
5 14 131 15 193 2 27 -5 38 0 73 31 l41 37 0 75 c0 71 1 73 20 63 11 -6 25 -8
30 -5 5 3 11 -12 13 -32 l4 -38 1 41 c2 34 8 48 37 73 49 42 65 41 65 -7z
m-37 -708 l57 -105 0 -291 0 -292 -32 31 c-18 17 -43 36 -55 42 -23 12 -23 13
-23 251 0 153 -4 240 -10 240 -6 0 -10 -84 -10 -233 l0 -234 -52 18 -53 18 -3
225 -2 226 57 105 c32 58 60 105 63 105 3 0 31 -48 63 -106z m5 31 c-3 -3 -9
2 -12 12 -6 14 -5 15 5 6 7 -7 10 -15 7 -18z m-545 -251 c-4 -25 -21 -45 -84
-94 -252 -198 -405 -484 -425 -790 -9 -125 6 -237 52 -387 3 -10 -6 3 -20 28
-59 108 -77 378 -37 557 43 194 135 369 274 518 67 71 234 211 242 202 1 -2 0
-17 -2 -34z m347 -99 c0 -47 -4 -85 -9 -85 -15 0 -43 82 -49 144 l-5 58 32
-16 31 -17 0 -84z m351 -61 c10 -57 9 -82 -4 -146 -15 -73 -40 -128 -58 -128
-13 0 -11 18 11 88 21 67 27 192 10 192 -5 0 -10 -1 -10 -2 0 -2 -9 -28 -20
-58 l-19 -55 0 56 c-1 45 5 64 30 104 37 58 43 53 60 -51z m1240 -59 c21 -128
-3 -295 -61 -436 -143 -345 -567 -599 -1002 -599 l-99 0 15 28 c15 28 17 29
121 36 569 37 980 383 1012 851 5 78 -1 150 -22 255 -3 14 2 5 10 -20 9 -25
20 -76 26 -115z m104 -82 c160 -622 -265 -1225 -968 -1375 -128 -27 -381 -31
-497 -8 l-75 15 83 3 c64 2 82 6 82 17 0 12 24 15 138 15 164 0 288 19 428 65
401 133 686 421 786 793 14 53 22 121 25 221 6 158 -4 239 -43 355 -13 38 -24
72 -23 75 2 18 44 -97 64 -176z m-1401 -6 c-15 -81 -34 -117 -34 -64 0 24 26
133 36 149 14 22 13 -4 -2 -85z m-179 -81 c64 -29 111 -69 147 -125 32 -52 35
-66 11 -75 -12 -5 -35 11 -80 56 -34 34 -60 64 -58 67 3 2 33 -17 67 -44 l63
-48 -45 47 c-51 53 -117 102 -127 93 -13 -14 23 -70 79 -122 32 -30 63 -55 69
-55 10 0 13 -43 3 -53 -12 -12 -80 31 -123 78 -44 48 -86 127 -97 184 -7 31
-6 33 17 26 13 -4 47 -17 74 -29z m-35 -154 c27 -35 40 -63 40 -83 0 -24 -3
-30 -16 -25 -9 3 -33 6 -55 6 l-39 0 1 118 c1 114 1 116 15 77 8 -22 32 -64
54 -93z m457 29 c-7 -96 -41 -175 -98 -233 -79 -79 -93 -62 -28 34 68 100 104
232 49 183 -21 -19 -93 -145 -87 -151 2 -3 21 24 42 58 54 86 56 56 3 -44
l-43 -83 -9 62 c-5 34 -6 72 -2 86 8 34 71 116 119 155 36 30 42 31 50 16 5
-9 7 -46 4 -83z m-232 -4 c27 -73 30 -86 15 -71 -9 9 -60 137 -60 151 0 20 22
-20 45 -80z m-820 -92 c-25 -81 -152 -271 -170 -253 -10 10 84 182 131 241 25
31 47 57 49 57 2 0 -3 -20 -10 -45z m843 -37 c-4 -42 -34 -60 -54 -34 -18 26
-18 51 2 70 25 25 56 3 52 -36z m-105 -16 c22 -10 27 -18 27 -48 l0 -37 -19
25 c-11 13 -35 33 -55 43 -26 14 -36 26 -36 43 0 23 0 23 28 5 15 -11 39 -24
55 -31z m-50 -32 c42 -30 97 -96 97 -117 0 -18 -22 -12 -120 35 -82 39 -75 55
10 22 73 -29 73 -19 0 14 -75 34 -135 45 -128 25 7 -24 94 -76 164 -99 72 -24
72 -40 -1 -40 -90 0 -162 43 -217 129 -26 42 -27 46 -11 53 10 4 52 7 94 5 64
-2 83 -6 112 -27z m177 -46 c0 -41 -4 -63 -10 -59 -18 11 -12 125 7 125 2 0 3
-30 3 -66z m-365 -28 c12 -18 15 -44 13 -106 l-3 -83 -57 52 c-35 32 -58 61
-58 73 0 19 64 87 82 88 4 0 15 -11 23 -24z m531 -63 c-7 -65 -49 -162 -91
-211 -23 -27 -110 -82 -130 -82 -10 0 -5 67 10 125 16 58 48 113 89 148 31 27
109 77 119 77 6 0 7 -23 3 -57z m-396 -170 l0 -133 -55 0 -55 0 0 169 0 169
55 -36 55 -36 0 -133z m221 176 c15 -29 -3 -69 -31 -69 -28 0 -46 40 -31 69 7
11 20 21 31 21 11 0 24 -10 31 -21z m-937 -31 c9 -13 14 -16 10 -8 -3 8 57
-48 135 -126 l141 -140 0 -82 c0 -44 -5 -94 -12 -109 -13 -29 -116 -153 -127
-153 -4 0 -25 38 -48 84 -29 58 -38 86 -30 90 8 3 7 5 -3 5 -15 1 -190 336
-190 364 0 11 88 96 101 97 4 0 14 -10 23 -22z m846 -110 c0 -64 -5 -111 -14
-133 -14 -32 -19 -35 -55 -35 l-41 0 0 133 0 132 55 1 55 0 0 -98z m-956 -133
c-9 -130 4 -202 71 -390 6 -19 5 -19 -13 2 -10 11 -31 59 -47 105 -23 69 -29
105 -33 215 -5 138 2 199 19 172 5 -8 6 -53 3 -104z m980 8 c-7 -48 -38 -108
-101 -198 -56 -78 -136 -175 -145 -175 -4 0 -8 15 -8 33 0 27 11 43 61 92 68
67 146 178 175 248 10 26 20 47 22 47 2 0 0 -21 -4 -47z m236 12 c0 -2 -5 -16
-12 -30 -11 -24 -15 -25 -92 -25 l-81 1 37 19 c20 11 40 24 43 30 6 10 105 15
105 5z m-312 -90 l-11 -25 -151 0 -151 0 30 25 c28 23 37 24 162 25 l133 0
-12 -25z m147 0 l30 -25 -57 0 c-60 0 -69 7 -42 34 21 21 34 20 69 -9z m-187
-57 c-14 -21 -24 -23 -116 -26 -95 -3 -102 -1 -129 22 l-28 25 144 1 143 0
-14 -22z m189 -3 c-22 -19 -39 -25 -78 -25 -53 0 -57 4 -32 32 12 14 30 18 77
18 l61 -1 -28 -24z m-911 -145 c2 -52 10 -117 18 -145 19 -62 20 -66 2 -59
-35 14 -71 232 -52 310 7 27 8 28 19 9 6 -11 12 -63 13 -115z m558 86 c10 -15
12 -27 6 -31 -13 -8 -13 -52 1 -61 8 -4 8 -9 0 -17 -6 -6 -11 -23 -11 -38 0
-15 5 -31 11 -35 8 -4 8 -9 0 -17 -8 -8 -33 11 -93 70 l-82 82 39 35 c51 45
104 49 129 12z m83 8 c-32 -17 -68 -15 -75 4 -3 8 11 12 50 12 l53 -1 -28 -15z
m177 7 c8 -12 -12 -27 -59 -47 -43 -17 -42 -17 4 39 15 18 46 23 55 8z m-191
-63 c-34 -34 -45 -40 -55 -30 -18 18 1 43 43 58 55 20 56 16 12 -28z m185 0
c22 -22 13 -39 -30 -58 -70 -30 -148 -60 -148 -56 0 18 81 94 114 108 50 21
49 21 64 6z m-562 -80 c-3 -23 -7 -49 -8 -55 -1 -7 -12 -23 -26 -35 l-25 -23
6 30 c5 24 2 21 -13 -12 -10 -24 -23 -43 -28 -43 -5 0 -15 15 -24 32 l-15 33
61 67 c35 38 65 63 70 58 4 -4 6 -28 2 -52z m304 -110 c0 -10 -9 -18 -22 -20
-17 -2 -24 -11 -26 -30 -2 -18 -10 -28 -20 -29 -15 -1 -15 -2 1 -6 10 -3 17
-14 17 -28 0 -13 6 -25 13 -28 6 -2 -10 -8 -38 -12 -27 -3 -58 -9 -67 -12 -12
-3 -18 1 -18 12 0 9 3 14 8 12 4 -3 7 6 7 19 0 13 -3 24 -7 24 -5 0 -8 62 -8
137 l0 138 80 -80 c44 -44 80 -87 80 -97z m-199 134 c-6 -12 -11 -24 -11 -29
1 -4 9 8 20 27 l19 35 1 -127 c0 -113 -2 -128 -17 -128 -14 0 -14 -3 4 -22 11
-13 18 -31 15 -41 -3 -16 -11 -18 -60 -13 -32 3 -58 5 -59 6 -2 0 -4 10 -4 23
l-2 22 -4 -23 c-4 -18 -9 -22 -26 -16 -58 18 -67 24 -67 46 0 13 -3 33 -6 46
-5 16 -2 22 10 22 15 0 21 12 17 33 -1 5 2 6 7 3 5 -3 20 6 32 19 13 14 29 25
37 25 7 0 13 5 13 11 0 13 82 111 87 105 3 -2 0 -13 -6 -24z m569 14 c0 -2 -8
-10 -17 -17 -16 -13 -17 -12 -4 4 13 16 21 21 21 13z m-104 -51 c10 -26 -12
-41 -115 -80 -106 -39 -136 -42 -136 -10 0 16 21 29 105 62 114 46 138 51 146
28z m-249 -17 c-3 -8 -6 -5 -6 6 -1 11 2 17 5 13 3 -3 4 -12 1 -19z m313 19
c0 -2 -15 -16 -32 -33 l-33 -29 29 33 c28 30 36 37 36 29z m-72 -79 c29 -29
13 -38 -65 -38 l-78 1 55 24 c65 28 72 29 88 13z m60 -100 l-3 -43 -175 0
-175 0 -3 43 -3 42 181 0 181 0 -3 -42z m-535 -328 c5 -5 2 -20 -5 -35 l-15
-27 -15 24 c-8 12 -23 38 -33 57 l-17 34 39 -23 c21 -13 42 -26 46 -30z m86
-38 l61 -28 -50 -37 c-71 -53 -74 -53 -94 -9 -17 37 -17 42 -2 71 9 17 18 31
20 31 2 0 31 -13 65 -28z m94 -62 c-2 -24 -2 -25 9 -3 9 19 14 20 40 11 28
-10 30 -14 24 -47 -3 -20 -6 -48 -6 -63 0 -19 -8 -32 -27 -43 -25 -15 -16 -14
20 0 9 4 12 -5 9 -35 -3 -33 -8 -40 -26 -41 -16 -1 -17 -2 -3 -6 20 -5 23 -47
6 -90 -7 -15 -15 -46 -18 -68 -3 -22 -10 -39 -16 -38 -5 1 -17 32 -27 68 -10
37 -27 84 -38 106 -18 35 -19 39 -4 39 13 0 14 3 4 15 -7 8 -16 12 -21 9 -5
-3 -23 24 -41 61 -32 64 -32 65 -13 79 11 8 38 28 60 45 47 36 71 36 68 1z"/>
<path d="M1373 4005 c0 -27 2 -38 4 -22 2 15 2 37 0 50 -2 12 -4 0 -4 -28z"/>
<path d="M1100 3690 c19 -11 40 -19 45 -19 6 0 -6 8 -25 19 -19 11 -39 19 -45
19 -5 0 6 -8 25 -19z"/>
<path d="M1070 3550 c-30 -16 -50 -29 -45 -29 6 0 35 13 65 29 30 16 51 29 45
29 -5 0 -35 -13 -65 -29z"/>
<path d="M1192 3515 c-17 -37 -14 -45 4 -12 9 16 14 31 11 33 -2 2 -9 -7 -15
-21z"/>
<path d="M1222 3470 c0 -19 2 -27 5 -17 2 9 2 25 0 35 -3 9 -5 1 -5 -18z"/>
<path d="M1162 3445 c-17 -37 -14 -45 4 -12 9 16 14 31 11 33 -2 2 -9 -7 -15
-21z"/>
<path d="M1132 3375 c-17 -37 -14 -45 4 -12 9 16 14 31 11 33 -2 2 -9 -7 -15
-21z"/>
<path d="M1020 3265 c-25 -13 -40 -24 -35 -24 6 0 30 11 55 24 25 13 41 24 35
24 -5 0 -30 -11 -55 -24z"/>
<path d="M1090 3200 c0 -5 -12 -11 -27 -11 l-28 -1 29 -7 c16 -3 33 -15 37
-26 7 -19 8 -19 8 2 1 12 6 23 11 25 6 2 1 9 -10 16 -12 7 -20 8 -20 2z"/>
<path d="M968 3173 c12 -2 30 -2 40 0 9 3 -1 5 -23 4 -22 0 -30 -2 -17 -4z"/>
<path d="M1061 3124 c-21 -45 -23 -46 -59 -41 -35 4 -35 4 -9 -6 15 -6 27 -17
27 -24 0 -7 -21 -54 -46 -104 -25 -50 -44 -93 -42 -95 2 -2 26 41 53 96 38 78
54 100 70 100 16 0 17 2 5 10 -12 8 -11 16 8 56 13 25 21 48 19 50 -2 2 -13
-17 -26 -42z"/>
<path d="M1111 3114 c0 -11 3 -14 6 -6 3 7 2 16 -1 19 -3 4 -6 -2 -5 -13z"/>
<path d="M1122 3070 c0 -14 2 -19 5 -12 2 6 2 18 0 25 -3 6 -5 1 -5 -13z"/>
<path d="M1105 3033 c17 -9 37 -17 45 -18 8 -1 26 -5 40 -8 14 -4 7 1 -15 11
-22 11 -53 22 -70 25 l-30 7 30 -17z"/>
<path d="M1141 2984 c0 -11 3 -14 6 -6 3 7 2 16 -1 19 -3 4 -6 -2 -5 -13z"/>
<path d="M1151 2944 c0 -11 3 -14 6 -6 3 7 2 16 -1 19 -3 4 -6 -2 -5 -13z"/>
<path d="M1233 2925 c0 -22 2 -30 4 -17 2 12 2 30 0 40 -3 9 -5 -1 -4 -23z"/>
<path d="M1161 2904 c0 -11 3 -14 6 -6 3 7 2 16 -1 19 -3 4 -6 -2 -5 -13z"/>
<path d="M851 2874 c0 -11 3 -14 6 -6 3 7 2 16 -1 19 -3 4 -6 -2 -5 -13z"/>
<path d="M1171 2864 c0 -11 3 -14 6 -6 3 7 2 16 -1 19 -3 4 -6 -2 -5 -13z"/>
<path d="M1222 2840 c0 -19 2 -27 5 -17 2 9 2 25 0 35 -3 9 -5 1 -5 -18z"/>
<path d="M861 2834 c0 -11 3 -14 6 -6 3 7 2 16 -1 19 -3 4 -6 -2 -5 -13z"/>
<path d="M1181 2824 c0 -11 3 -14 6 -6 3 7 2 16 -1 19 -3 4 -6 -2 -5 -13z"/>
<path d="M1191 2784 c0 -11 3 -14 6 -6 3 7 2 16 -1 19 -3 4 -6 -2 -5 -13z"/>
<path d="M875 2771 c-3 -6 4 -25 15 -43 19 -31 20 -31 15 -6 -6 24 -4 27 27
31 l33 4 -32 1 c-18 1 -33 7 -33 12 0 13 -17 13 -25 1z"/>
<path d="M998 2743 c12 -2 30 -2 40 0 9 3 -1 5 -23 4 -22 0 -30 -2 -17 -4z"/>
<path d="M1083 2733 c9 -2 25 -2 35 0 9 3 1 5 -18 5 -19 0 -27 -2 -17 -5z"/>
<path d="M1045 2300 c-25 -49 -43 -90 -40 -90 3 0 25 41 50 90 25 50 43 90 40
90 -3 0 -25 -40 -50 -90z"/>
<path d="M1156 2300 c3 -14 11 -32 16 -40 6 -10 7 -7 2 10 -3 14 -11 32 -16
40 -6 10 -7 7 -2 -10z"/>
<path d="M1196 2190 c3 -14 11 -32 16 -40 6 -10 7 -7 2 10 -3 14 -11 32 -16
40 -6 10 -7 7 -2 -10z"/>
<path d="M1658 2348 c-65 -81 -84 -116 -30 -58 27 30 53 52 56 49 4 -3 -23
-45 -59 -93 -74 -100 -72 -109 5 -21 49 56 89 124 90 153 0 25 -29 11 -62 -30z"/>
<path d="M690 2350 c6 -11 13 -20 16 -20 2 0 0 9 -6 20 -6 11 -13 20 -16 20
-2 0 0 -9 6 -20z"/>
<path d="M720 2300 c6 -11 13 -20 16 -20 2 0 0 9 -6 20 -6 11 -13 20 -16 20
-2 0 0 -9 6 -20z"/>
<path d="M752 2248 c8 -13 31 -51 52 -85 21 -35 40 -63 43 -63 3 0 -1 10 -9
23 -8 12 -31 50 -52 85 -21 34 -40 62 -43 62 -3 0 1 -10 9 -22z"/>
<path d="M860 2070 c6 -11 13 -20 16 -20 2 0 0 9 -6 20 -6 11 -13 20 -16 20
-2 0 0 -9 6 -20z"/>
<path d="M890 2020 c6 -11 13 -20 16 -20 2 0 0 9 -6 20 -6 11 -13 20 -16 20
-2 0 0 -9 6 -20z"/>
<path d="M920 1970 c6 -11 13 -20 16 -20 2 0 0 9 -6 20 -6 11 -13 20 -16 20
-2 0 0 -9 6 -20z"/>
<path d="M773 1943 c9 -2 23 -2 30 0 6 3 -1 5 -18 5 -16 0 -22 -2 -12 -5z"/>
<path d="M833 1933 c9 -2 23 -2 30 0 6 3 -1 5 -18 5 -16 0 -22 -2 -12 -5z"/>
<path d="M888 1923 c6 -2 18 -2 25 0 6 3 1 5 -13 5 -14 0 -19 -2 -12 -5z"/>
<path d="M926 1865 c-9 -26 -7 -32 5 -12 6 10 9 21 6 23 -2 3 -7 -2 -11 -11z"/>
<path d="M906 1815 c-9 -26 -7 -32 5 -12 6 10 9 21 6 23 -2 3 -7 -2 -11 -11z"/>
<path d="M1128 1633 c6 -2 18 -2 25 0 6 3 1 5 -13 5 -14 0 -19 -2 -12 -5z"/>
<path d="M1012 1775 c-17 -37 -14 -45 4 -12 9 16 14 31 11 33 -2 2 -9 -7 -15
-21z"/>
<path d="M979 1701 c-14 -24 -14 -30 -3 -46 8 -10 14 -13 14 -7 0 9 5 10 19 2
35 -18 37 -11 3 10 -28 18 -31 23 -22 41 17 32 7 32 -11 0z"/>
<path d="M903 1683 c9 -2 25 -2 35 0 9 3 1 5 -18 5 -19 0 -27 -2 -17 -5z"/>
<path d="M961 1634 c0 -11 3 -14 6 -6 3 7 2 16 -1 19 -3 4 -6 -2 -5 -13z"/>
<path d="M1196 1175 c-9 -26 -7 -32 5 -12 6 10 9 21 6 23 -2 3 -7 -2 -11 -11z"/>
<path d="M1176 1125 c-9 -26 -7 -32 5 -12 6 10 9 21 6 23 -2 3 -7 -2 -11 -11z"/>
<path d="M1156 1075 c-9 -26 -7 -32 5 -12 6 10 9 21 6 23 -2 3 -7 -2 -11 -11z"/>
<path d="M1198 1003 c6 -2 18 -2 25 0 6 3 1 5 -13 5 -14 0 -19 -2 -12 -5z"/>
</g>
</svg>
